<svg width="16" height="16" viewBox="0 0 16 16" fill="none" xmlns="http://www.w3.org/2000/svg">
<path fill-rule="evenodd" clip-rule="evenodd" d="M11.3584 11.7186L13.5806 2.55178C13.5795 2.53433 13.5781 2.51765 13.5765 2.50167C13.5197 2.44668 13.4537 2.38669 13.3877 2.32671C13.2522 2.20353 13.1167 2.08035 13.0612 2.00035L13.3878 2.00021V2L13.6549 2.0001L13.7144 2.00007L13.7144 2L13.7147 2.00007L13.8775 2V2.00018L14.3674 2.00035C14.3008 2.08035 14.1382 2.20353 13.9756 2.32671C13.8841 2.39596 13.7927 2.46521 13.7184 2.52679C13.7157 2.56487 13.7143 2.60678 13.7143 2.65307C13.7037 2.63784 13.6902 2.62105 13.6744 2.603L11.4167 11.9162C11.5898 12.5026 11.7638 13.0885 11.9396 13.6735C12.0081 13.9042 12.1043 14.2015 12.2124 14.4902L15.2162 2.63627C15.2158 2.58632 15.2132 2.54162 15.209 2.50144C15.1523 2.44651 15.0864 2.38661 15.0205 2.32671C14.885 2.20353 14.7495 2.08035 14.694 2.00035L15.0204 2.00021C15.0204 2.00014 15.0204 2.00007 15.0204 2L15.2876 2.0001L15.5103 2C15.5103 2.00006 15.5103 2.00012 15.5103 2.00018L16 2.00035C15.9334 2.08035 15.7708 2.20353 15.6082 2.32671C15.5168 2.39589 15.4255 2.46507 15.3512 2.5266C15.3485 2.56473 15.3471 2.60671 15.3471 2.65307C15.3409 2.64415 15.3337 2.63469 15.3256 2.62475L12.2951 14.5841L12.243 14.5709L12.245 14.576C12.245 14.576 12.0358 14.5611 11.9228 14.5611C11.7061 14.5644 11.4899 14.5627 11.2738 14.5609H11.2738H11.2737H11.2737H11.2737H11.2737C10.9227 14.5581 10.5722 14.5553 10.22 14.5742C9.76245 14.5988 9.7573 14.5797 9.67185 14.2638L9.67185 14.2637L9.67183 14.2637L9.67175 14.2634L9.67166 14.263C9.66084 14.223 9.64873 14.1783 9.63425 14.1282C9.23651 12.7538 8.83516 11.3801 8.43226 10.0064H3.02813C3.02813 10.4634 3.02155 10.8757 3.0152 11.2727V11.2727V11.2727V11.2727V11.2727V11.2727C3.00321 12.0238 2.99209 12.7197 3.02813 13.5583L3.02995 13.5977C3.04116 13.8529 3.05913 14.2618 3.6404 14.576H0C0.572195 14.4327 0.722078 14.0837 0.713601 13.5583C0.69947 12.7673 0.704184 11.9388 0.708895 11.111C0.711249 10.6973 0.713601 10.2839 0.713601 9.87542H8.39383C8.14808 9.03778 7.90178 8.2002 7.65539 7.36255H0.715909V3.46868C0.715909 3.40786 0.719752 3.34578 0.723595 3.28372L0.723596 3.28371C0.732432 3.141 0.741264 2.99835 0.703355 2.87121C0.639598 2.65958 0.545736 2.46107 0.452349 2.26357L0.452348 2.26356L0.452348 2.26356C0.410896 2.1759 0.369537 2.08843 0.330946 2.0001H3.6366C3.05497 2.30111 3.02568 2.77088 3.02986 3.27257C3.0382 4.13849 3.03547 5.00442 3.03269 5.88502V5.88503V5.88504V5.88505V5.88506V5.88513C3.03128 6.331 3.02986 6.78063 3.02986 7.23593H7.61814L7.54579 6.98997C7.17877 5.74231 6.81171 4.49448 6.44613 3.24614C6.29633 2.73739 6.12583 2.27189 5.63419 2.00447H8.83931C8.83931 2.13297 8.83058 2.26101 8.822 2.38683C8.80402 2.65057 8.78671 2.90454 8.85186 3.13246C9.37416 4.99544 9.92255 6.84934 10.4705 8.70171L10.4705 8.70177L10.4705 8.70182L10.4705 8.70188L10.4706 8.70216L10.4709 8.70319L10.4712 8.70422L10.4715 8.70525L10.4718 8.70627C10.5818 9.07814 10.6918 9.44994 10.8016 9.82175C10.9868 10.4542 11.1721 11.0867 11.3584 11.7186ZM5.63419 2.00447H5.62609V2.0001L5.63419 2.00447Z" fill="url(#paint0_linear_38_16)"/>
<defs>
<linearGradient id="paint0_linear_38_16" x1="13.9142" y1="2.88911" x2="-0.894441" y2="5.82343" gradientUnits="userSpaceOnUse">
<stop stop-color="#ED8E00"/>
<stop offset="0.55" stop-color="#FFA800"/>
<stop offset="1" stop-color="#FB6F10"/>
</linearGradient>
</defs>
</svg>
