<svg width="304" height="240" viewBox="0 0 304 240" fill="none" xmlns="http://www.w3.org/2000/svg">
<path fill-rule="evenodd" clip-rule="evenodd" d="M215.788 185.558L258.007 11.4026C257.986 11.0726 257.96 10.7568 257.928 10.4545C256.85 9.40998 255.597 8.27084 254.344 7.13169C251.769 4.79154 249.195 2.45139 248.14 0.931527L254.344 0.928838V0.924805L259.42 0.926638L260.547 0.926149L260.547 0.924805L260.553 0.926147L263.649 0.924805V0.928166L272.955 0.931527C271.689 2.45139 268.6 4.79154 265.51 7.13169C263.774 8.44696 262.038 9.76223 260.625 10.9319C260.575 11.6557 260.547 12.4522 260.547 13.3319C260.346 13.0419 260.09 12.7222 259.788 12.3783L216.895 189.313C220.184 200.454 223.49 211.586 226.83 222.701C228.131 227.083 229.959 232.73 232.013 238.215L289.081 13.0102C289.072 12.0619 289.023 11.2133 288.944 10.4503C287.867 9.40696 286.615 8.26933 285.364 7.13169C282.789 4.79154 280.215 2.45139 279.16 0.931527L285.36 0.92884C285.36 0.927495 285.36 0.92615 285.36 0.924805L290.438 0.926639L294.669 0.924805C294.669 0.925926 294.669 0.927047 294.669 0.928167L303.971 0.931527C302.705 2.45139 299.616 4.79154 296.527 7.13169C294.792 8.44569 293.057 9.75969 291.645 10.9285C291.595 11.6532 291.567 12.4508 291.567 13.3319C291.449 13.162 291.312 12.9818 291.159 12.7926L233.583 240L232.596 239.75L232.633 239.846C232.633 239.846 228.658 239.562 226.512 239.562C222.395 239.626 218.288 239.593 214.185 239.559H214.184H214.183H214.182H214.181H214.18C207.513 239.506 200.852 239.452 194.161 239.812C185.469 240.279 185.371 239.917 183.748 233.914L183.747 233.913L183.746 233.909C183.54 233.147 183.309 232.293 183.033 231.339C175.477 205.228 167.852 179.129 160.198 153.033H57.529C57.529 161.714 57.4039 169.548 57.2834 177.09V177.09C57.0554 191.359 56.8442 204.581 57.529 220.511C57.5331 220.591 57.537 220.672 57.5409 220.754C57.5486 220.919 57.556 221.088 57.5636 221.26L57.5636 221.261C57.7766 226.108 58.1178 233.877 69.1609 239.846H0C10.8707 237.123 13.7182 230.493 13.5571 220.511C13.2886 205.484 13.3782 189.743 13.4677 174.017C13.5124 166.158 13.5571 158.304 13.5571 150.543H159.468C154.799 134.63 150.12 118.717 145.439 102.804H13.5994V28.8272C13.5994 27.6717 13.6724 26.4923 13.7454 25.3131C13.9133 22.6018 14.0811 19.8918 13.3609 17.4764C12.1496 13.4557 10.3664 9.68435 8.59223 5.93212C7.8047 4.26659 7.01896 2.60483 6.28581 0.926688H69.0871C58.0373 6.64542 57.4808 15.5701 57.5603 25.1014C57.7186 41.553 57.6667 58.0047 57.614 74.7352C57.5872 83.2059 57.5603 91.7482 57.5603 100.398H144.731L143.357 95.7261C136.384 72.0225 129.41 48.3158 122.465 24.5992C119.619 14.9339 116.38 6.0902 107.039 1.00975H167.931C167.931 3.45074 167.765 5.88308 167.602 8.27317V8.27336V8.27354V8.27372V8.2739C167.261 13.2845 166.932 18.1096 168.169 22.4396C178.092 57.834 188.511 93.0559 198.921 128.249L198.922 128.251L198.942 128.317L199.015 128.565C201.082 135.552 203.148 142.538 205.21 149.524C208.73 161.538 212.249 173.553 215.788 185.558ZM107.039 1.00975H106.885V0.926688C106.937 0.954263 106.988 0.98195 107.039 1.00975Z" fill="url(#paint0_linear_38_17)"/>
<defs>
<linearGradient id="paint0_linear_38_17" x1="264.345" y1="17.8162" x2="-16.9928" y2="73.563" gradientUnits="userSpaceOnUse">
<stop stop-color="#ED8E00"/>
<stop offset="0.55" stop-color="#FFA800"/>
<stop offset="1" stop-color="#FB6F10"/>
</linearGradient>
</defs>
</svg>
